<svg id="Layer_1" data-name="Layer 1" xmlns="http://www.w3.org/2000/svg" viewBox="0 0 1381.4 1451.42"><defs><style>.cls-1{fill:#f58a07;}.cls-2{fill:#084887;}</style></defs><path class="cls-1" d="M1487.63,799.89h0a76.63,76.63,0,0,0-108.36,0l-54.19,54.19L1054.16,1125a76.63,76.63,0,0,1-108.36,0h0a76.63,76.63,0,0,1,0-108.36l216.74-216.74a76.63,76.63,0,0,0,0-108.36h0a76.63,76.63,0,0,0-108.36,0L837.42,908.25a76.63,76.63,0,0,1-108.36,0h0a76.63,76.63,0,0,1-3.23-104.91l274.26-274.26,54.19-54.18a76.63,76.63,0,0,0,0-108.36l-.12-.12a76.63,76.63,0,0,0-108.36,0L566.51,745.7l-54.18,54.19a76.62,76.62,0,0,0,0,108.35l54.18,54.2h0L945.8,1341.71a76.62,76.62,0,0,0,108.36,0l379.29-379.28,54.18-54.19A76.63,76.63,0,0,0,1487.63,799.89Z" transform="translate(-309.28 -273.95)"/><path class="cls-2" d="M1668.23,980.49a76.63,76.63,0,0,1,0,108.36L1614.05,1143l-559.89,559.89a76.63,76.63,0,0,1-108.36,0L385.91,1143l-54.19-54.19a76.63,76.63,0,0,1,0-108.36h0a76.63,76.63,0,0,1,108.36,0l54.19,54.19L945.8,1486.2a76.63,76.63,0,0,0,108.36,0l451.53-451.52,54.18-54.19a76.63,76.63,0,0,1,108.36,0Z" transform="translate(-309.28 -273.95)"/><circle class="cls-2" cx="282.37" cy="97" r="97"/><circle class="cls-2" cx="1099.03" cy="97" r="97"/></svg>