<?xml version="1.0" encoding="utf-8"?>
<!-- Generator: Adobe Illustrator 25.4.1, SVG Export Plug-In . SVG Version: 6.00 Build 0)  -->
<svg version="1.1" id="Layer_1" xmlns="http://www.w3.org/2000/svg" xmlns:xlink="http://www.w3.org/1999/xlink" x="0px" y="0px"
	 viewBox="0 0 1641.2 494.4" style="enable-background:new 0 0 1641.2 494.4;" xml:space="preserve">
<style type="text/css">
	.st0{fill:#F58A07;}
	.st1{fill:#FFFFFF;}
</style>
<polygon class="st0" points="74.8,138.1 0,138.1 0,489.6 171.7,489.6 171.7,419.3 74.8,419.3 "/>
<path class="st0" d="M624.5,159.5c-21.8-17.4-47.6-26.1-77.3-26.2c-29.2,0-54.4,8.6-75.7,25.9s-32,41.4-32,72.3v165
	c0,30.4,10.9,54.2,32.7,71.7c21.8,17.4,47.6,26.1,77.3,26.1c29.1,0,54.4-8.6,75.7-25.7c21.3-17.1,32-41.2,32-72.1v-165
	C657.2,200.9,646.3,176.9,624.5,159.5z M582.3,396.5c0,9-3.2,16-9.7,21c-6.5,5-14.2,7.5-23.2,7.4c-8.8,0.2-17.4-2.5-24.6-7.7
	c-6.8-4.7-10.8-12.5-10.6-20.7v-165c0-9,3.2-16,9.7-21c4.7-3.6,10.3-6,16.2-6.9c2.3-0.4,4.7-0.6,7-0.6c5.7-0.1,11.4,1,16.7,3.2
	c2.8,1.2,5.4,2.6,7.8,4.4c6.8,4.7,10.8,12.5,10.6,20.7L582.3,396.5z"/>
<path class="st0" d="M340.8,138.4v-0.2h0V138h-70.3v0.1l0,0v0.2l-78.4,351.2h74.8l7.2-37h63.1l7.2,37h74.8L340.8,138.4z M288,382.4
	l17.6-89.7l17.6,89.7L288,382.4z"/>
<path class="st0" d="M305.6,13.2c0.2,0,0.4,0,0.7,0c0.3,0,0.5,0,0.8,0v-1.9h-2.9v1.9c0.3,0,0.5,0,0.8,0
	C305.2,13.2,305.4,13.2,305.6,13.2z"/>
<path class="st0" d="M304.7,14.9c-0.3,0-0.7,0-1.1,0.1h-0.1c0,0-0.1,0-0.1,0.1c-0.5,0.6-0.8,1.4-0.8,2.1c0.6,0.4,1.4,0.7,2.1,0.9
	L304.7,14.9z"/>
<path class="st0" d="M281.6,122.9l0.2,0.1c1.2,0.4,2.4,0.9,3.5,1.6c1.1-0.7,2.3-1.2,3.6-1.6h0.3l0.2,0.1c1.4,0.4,2.7,1.1,3.9,1.9
	c1.2-0.8,2.6-1.5,4-1.9h0.3l0.2,0.1c1.4,0.4,2.7,1.1,3.9,1.9c1.2-0.8,2.5-1.4,3.9-1.9l0.2-0.1l0.2,0.1c1.4,0.4,2.7,1.1,3.9,1.9
	c1.2-0.8,2.6-1.5,4-1.9h0.3l0.2,0.1c1.4,0.4,2.7,1.1,3.9,1.9c1.2-0.8,2.6-1.5,4-1.9h0.3l0.2,0.1c1.2,0.4,2.4,0.9,3.5,1.6
	c1.1-0.7,2.3-1.2,3.6-1.6h0.3l0.2,0.1c0.4,0.1,0.9,0.3,1.2,0.5l-1.6-3.2h-2.1v-2.6h-1.4v-5.8l-0.8,0.8h-39.8l-0.8-0.8v5.8h-1.4v2.4
	h-2l-1.6,3.2c0.4-0.2,0.9-0.3,1.3-0.5L281.6,122.9z"/>
<path class="st0" d="M299.2,127.2l0.2-0.2l0.2-0.3c0.2-0.2,0.4-0.5,0.6-0.7c-0.9-0.5-1.8-1-2.8-1.3c-1,0.3-1.9,0.8-2.8,1.3
	c0.2,0.2,0.4,0.4,0.6,0.7c0.1,0.1,0.1,0.2,0.2,0.3l0.2,0.3c0.3,0.5,0.6,1,0.8,1.5c0.8,2.5,0.7,5.3-0.3,7.7h2.7
	c-1.1-2.4-1.2-5.2-0.4-7.7C298.6,128.2,298.9,127.7,299.2,127.2z"/>
<path class="st0" d="M279.7,136.5c0.4-3.7,0-6.6-1-8.6l-0.1-0.2l-0.1-0.2c-0.3-0.4-0.6-0.8-0.9-1.1l-0.4-0.3
	c-1.1-0.8-2.3-1.2-3.6-1.3c0.7,1,1.2,2.1,1.3,3.4c0,1.3-0.5,2.5-1.4,3.3c-1.4,1.3-2.1,3.2-2,5.1L279.7,136.5z"/>
<path class="st0" d="M293.9,127.9l-0.2-0.2l-0.2-0.2c-0.2-0.3-0.5-0.5-0.8-0.8l-0.3-0.3c-1-0.8-2.2-1.3-3.4-1.7
	c-1.1,0.4-2.1,0.9-3.1,1.5l-0.3,0.2c-0.4,0.3-0.8,0.6-1.1,1c-0.1,0.1-0.1,0.1-0.2,0.2l-0.2,0.2c-0.3,0.5-0.6,0.9-0.8,1.5
	c-1.1,2.8,0.1,5.9,0.6,7.1h10.2c0.5-1.2,1.7-4.2,0.6-7.1C294.5,128.8,294.3,128.3,293.9,127.9z"/>
<path class="st0" d="M310.6,136.5c0.5-1.2,1.7-4.2,0.6-7.1c-0.2-0.5-0.5-1-0.8-1.5l-0.2-0.2l-0.2-0.2c-0.2-0.3-0.5-0.5-0.8-0.8
	l-0.2-0.2l-0.2-0.1c-1-0.7-2.1-1.3-3.3-1.7c-1.2,0.4-2.3,1-3.4,1.7l-0.1,0.1l-0.2,0.2c-0.3,0.2-0.5,0.5-0.8,0.8
	c-0.1,0.1-0.1,0.2-0.2,0.2l-0.2,0.2c-0.3,0.4-0.6,0.9-0.8,1.5c-1.1,2.8,0.1,5.9,0.6,7.1H310.6z"/>
<polygon class="st0" points="319.9,104.7 321.8,101.3 289.4,101.3 291.3,104.7 "/>
<rect x="293" y="91.7" class="st0" width="25.2" height="3.5"/>
<polygon class="st0" points="318.4,90 321.1,76.8 290,76.8 292.8,90 "/>
<rect x="305" y="8.5" class="st0" width="1.2" height="1.1"/>
<rect x="305.3" class="st0" width="0.5" height="6.8"/>
<path class="st0" d="M306.5,18.2c0.8-0.2,1.5-0.5,2.1-0.9c0-0.8-0.3-1.5-0.8-2.1l-0.1-0.1h-0.1c-0.4,0-0.8-0.1-1.1-0.1V18.2z"/>
<polygon class="st0" points="322.3,109.8 319.5,109.8 319.5,106.4 291.6,106.4 291.6,109.8 288.9,109.8 288.2,110.8 322.9,110.8 "/>
<path class="st0" d="M315.6,127.2l0.2-0.3l0.2-0.3c0.2-0.2,0.4-0.5,0.6-0.7c-0.9-0.5-1.8-1-2.8-1.3c-1,0.3-1.9,0.8-2.8,1.3
	c0.2,0.2,0.4,0.5,0.6,0.7l0.2,0.2l0.2,0.3c0.3,0.5,0.6,1,0.8,1.5c0.9,2.5,0.7,5.3-0.3,7.7h2.7c-1.1-2.4-1.2-5.2-0.3-7.7
	C315,128.2,315.3,127.7,315.6,127.2z"/>
<path class="st0" d="M339.7,136.5c0.2-1.9-0.6-3.8-2-5.1c-0.9-0.9-1.4-2.1-1.4-3.3c0.1-1.2,0.5-2.4,1.3-3.4
	c-1.3,0.1-2.6,0.5-3.7,1.3l-0.3,0.3l-0.1,0.1c-0.3,0.3-0.6,0.7-0.8,1l-0.1,0.2l-0.1,0.2c-1.1,2-1.5,4.9-1,8.6H339.7z"/>
<path class="st0" d="M327.2,136.5c0.5-1.2,1.7-4.2,0.6-7.1c-0.2-0.5-0.5-1-0.8-1.5l-0.2-0.2l-0.2-0.2c-0.3-0.4-0.7-0.7-1.1-1
	l-0.2-0.1l-0.2-0.1c-0.9-0.6-1.9-1.1-3-1.4c-1.2,0.4-2.4,1-3.5,1.8l-0.1,0.1l-0.2,0.2c-0.3,0.2-0.5,0.5-0.8,0.8l-0.2,0.3l-0.1,0.2
	c-0.3,0.4-0.6,0.9-0.8,1.5c-1.1,2.8,0.1,5.9,0.6,7.1L327.2,136.5z"/>
<polygon class="st0" points="319.9,97 291.2,97 289.5,99.6 321.6,99.6 "/>
<path class="st0" d="M311.6,45.5c-3.5-10.3-2.9-21.7-2.4-26.6c-1,0.6-2.2,1-3.3,1.1h-0.3h-0.3c-1.2-0.1-2.3-0.5-3.3-1.1
	c0.5,5,1.1,16.3-2.4,26.6c-3.2,9.6-5.4,19.5-6.5,29.5h25.1C317,65,314.8,55.1,311.6,45.5z"/>
<path class="st1" d="M916.8,137.2v-7l5-2.8v-5.2h-8.6v-4l-4.4-2.1v-3.5l4.4-1.4v-2.6h-6.3v-19l4.8-8.5l3.8,1.7
	c7-1.4,6.9-8.8,6.9-8.8c-2.3,5.8-5.4,6.1-5.4,6.1c-7.7-2.2-15.2-5.2-22.2-8.9l1.9-3.3l3.6,1.6c6.6-1.3,6.5-8.3,6.5-8.3
	c-2.2,5.4-5.1,5.8-5.1,5.8c-8-2.3-15.7-5.4-23-9.5l0.8-1.4l3,1.3c5.3-1.1,5.3-6.8,5.3-6.8c-1.8,4.4-4.2,4.7-4.2,4.7
	c-5.5-1.6-8.5-3.4-12-5.1c-8-11.9-16.2-17.4-23-39.9c0.4-0.6,0.6-1.2,0.6-1.9c0-1.3-0.6-8.2-1.4-8.2s-1.4,6.9-1.4,8.2
	c0,0.7,0.2,1.4,0.7,2c-5.8,22.3-14.9,28-24.2,40.3c-3.5,1.9-7.1,3.4-10.9,4.5c0,0-2.4-0.3-4.2-4.7c0,0,0,5.7,5.3,6.8l3-1.3l0.8,1.4
	c-7.3,4-15,7.2-23,9.5c0,0-3-0.4-5.1-5.8c0,0,0,7,6.5,8.3l3.6-1.6l1.9,3.3c-7.1,3.7-14.5,6.7-22.2,8.9c0,0-3.1-0.4-5.4-6.1
	c0,0,0,7.4,6.9,8.8l3.8-1.7l4.8,8.5v19h-6.3v2.6l5.7,1.4v3.5l-5.8,2.1v4h-8.6v5.2l6.4,2.8v7l-1.7,1.1h-21.3v351.6h181.2v-70.3H832
	v-68h87.9v-70.3H832v-73h106.4v-69.9h-20.2L916.8,137.2z M808.2,93.2v15.3h-2.8V94.4h-8.1v14.1h-2.8v-19l2,2.1l4.9-3.9l4.9,3.9
	l2-2.1L808.2,93.2z M857.8,86v22.5h-4.1V87.7h-12v20.8h-4.1v-28l2.9,3.1l7.2-5.8l7.2,5.8l2.9-3.1L857.8,86z M901,93.2v15.3h-2.8
	V94.4h-8.1v14.1h-2.8v-19l2,2.1l4.9-3.9l4.9,3.9l2-2.1L901,93.2z"/>
<path class="st1" d="M1166.6,164.2c-21.6-17.3-47.3-25.9-77.1-25.9H984v351.6h74.8V388.4h32.5c29.1,0,54.4-8.6,75.7-25.7
	c21.3-17.1,32-41.2,32-72.1v-54.5C1199,205.4,1188.2,181.5,1166.6,164.2z M1124.2,290.6c0,9-3.2,15.9-9.7,20.7s-14.2,7.2-23.2,7.2
	h-32.5V207.7h30.7c8.7-0.2,17.3,2.5,24.3,7.7c6.7,4.7,10.6,12.5,10.4,20.8L1124.2,290.6z"/>
<path class="st1" d="M1636.5,334.4v4.7h-3.1v-8.6h1.1V327l-6.7-4.2V320h-1.3l0.5-0.6l-1.4-7.2l-1,7.2l0.5,0.6h-1.3v2.8l-6.7,4.2v3.4
	h1.1v8.6h-1.6v-3.8c0,0,0-3.4-1.9-4c0,0-2,0.5-2,4v3.8h-1.2v-13h4.4v-6.3c0,0-2.3,0.5-2.3,1.6v0.7h-2.1v-3.7l-7.6-9.1v-5.8h1.8v-3.4
	l-6.7-4.2V293h-1.3l0.5-0.6l-1.2-7.5l-1.2,7.5l0.6,0.6h-1.3v2.8l-6.7,4.2v3.4h1.8v5.8h-0.1l-7.5,9.1v3.7h-2.1v-0.7
	c0-1.1-2.3-1.6-2.3-1.6v6.3h4.4v13h-1.3v-3.8c0,0,0-3.4-2-4c0,0-1.9,0.5-1.9,4v3.8h-1.6v-8.6h1.1V327l-6.7-4.2V320h-1.3l0.5-0.6
	l-1.4-7.2l-0.9,7.2l0.5,0.6h-1.3v2.8l-6.7,4.2v3.4h1.1v8.6h-3v-4.7c0-2.2-4.7-3.2-4.7-3.2v7.8h-0.1v9.6h3.1v4.4
	c0,0.2,0.2,0.3,0.4,0.3h2.5v0.7h-2.5c-0.2,0-0.4,0.1-0.4,0.3v2.5c0,0.2,0.2,0.3,0.4,0.3c0,0,0,0,0,0h2.5v49.4l0,0
	c-1.6,4.3-4.3,8.1-8,10.8c-6.5,5-14.2,7.5-23.2,7.4c-8.8,0.2-17.4-2.5-24.6-7.7c-6.8-4.7-10.8-12.5-10.6-20.7v-165
	c0-9,3.1-16,9.2-21c6.2-5,13.9-7.6,21.9-7.4c8.5-0.2,16.7,2.5,23.4,7.7c6.6,5.1,9.9,12,9.9,20.7v23.4l74.8-14.4v-9
	c0-30.7-10.7-54.7-32.2-72.1c-21.5-17.4-46.8-26.1-76-26.2c-28.9,0-53.7,8.6-74.6,25.9c-20.9,17.3-31.3,41.4-31.3,72.3v165
	c0,30.4,10.9,54.2,32.7,71.7c21.8,17.4,47.5,26.1,77.3,26.1c29.1,0,54.4-8.6,75.7-25.7c19-15.2,29.5-35.9,31.6-62c0-0.2,0-0.3,0-0.5
	v-49h2.5c0.2,0,0.4-0.1,0.4-0.3v-2.5c0-0.2-0.2-0.3-0.4-0.3h-2.5v-0.7h2.5c0.2,0,0.4-0.1,0.4-0.3v-4.4h3.1v-17.3
	C1641.2,331.2,1636.5,332.2,1636.5,334.4z M1608,381.1v22.2h-21.7v-22.2h0.2c-0.1-0.3-0.1-0.7-0.2-1.1c0-0.8,0.1-1.5,0.4-2.2
	c1.3-3.3,5.5-5.8,10.4-5.8c6,0,10.8,3.6,10.8,7.9c0,0.4-0.1,0.7-0.1,1.1H1608z"/>
<path class="st1" d="M1317.2,138.3v26.3h-20.9c-15.3,0-27.6,12.3-27.7,27.6v103c0,15.2,12.4,27.6,27.6,27.6h20.9v167.1h-73.2V138.3
	H1317.2z"/>
<rect x="1328.7" y="283.1" class="st1" width="35.6" height="1.2"/>
<rect x="1328.7" y="283.1" class="st1" width="35.6" height="1.2"/>
<path class="st1" d="M1365.8,261.7h-38.7c-15.2,0-27.6-12.4-27.6-27.6v-41.9c0-5.6,1.7-11.1,4.9-15.7h-8.2c-8.6,0-15.7,7-15.7,15.6
	c0,0,0,0,0,0v103c0,8.7,7,15.7,15.7,15.7h69.6c8.7,0,15.7-7,15.7-15.7v-38.3C1376.9,260,1371.4,261.7,1365.8,261.7z M1376.3,284.4
	c0,6.6-5.4,12-12,12h-35.6c-6.6,0-11.9-5.3-12-11.9c0,0,0-0.1,0-0.1v-1.2c0-6.6,5.3-12,11.8-12c0,0,0.1,0,0.1,0h35.6
	c6.6,0,12,5.4,12,12V284.4z"/>
<path class="st1" d="M1381.5,192.2v41.9c0,8.7-7,15.7-15.7,15.7l0,0h-38.7c-8.6,0-15.7-7-15.7-15.7v-41.9c0-8.6,7-15.7,15.7-15.7
	h38.7C1374.5,176.5,1381.5,183.5,1381.5,192.2C1381.5,192.2,1381.5,192.2,1381.5,192.2z"/>
<rect x="1328.7" y="283.1" class="st1" width="35.6" height="1.2"/>
<rect x="1328.7" y="283.1" class="st1" width="35.6" height="1.2"/>
</svg>
